{"title":"Candyman Trilogy 3DVDrip English Klam","uid":8984333,"size":2225427453,"categoryP":"video","categoryS":"movies","magnet":"?xt=urn:btih:bdcd56094fdf5ba2960ffb5b40cfa3b7b59ce1d3&amp;dn=Candyman+Trilogy+3DVDrip+English+Klam&amp;tr=udp%3A%2F%2Ftracker.openbittorrent.com%3A80&amp;tr=udp%3A%2F%2Fopen.demonii.com%3A1337&amp;tr=udp%3A%2F%2Ftracker.coppersurfer.tk%3A6969&amp;tr=udp%3A%2F%2Fexodus.desync.com%3A6969","seeders":1,"leechers":0,"uploader":"Klambake","files":-1,"time":1380636078,"description":"[img] http://img33.imageshack.us/img33/5237/c5a.gif[/img]\n\nWith: Virginia Madsen, Tony Todd and Xander Berkeley\n\nCandyman Trilogy 1992 tot 1999\n\nSpreek vijf maal zijn naam uit in de spiegel en de verschrikkelijke Candyman duikt op.\n\nCandyman Trilogy 1992 1995 1999\n\nThe Candyman, a murderous soul with a hook for a hand, is accidentally summoned to reality by a skeptic grad student researching the monster's myth. \n &lt;a href=&quot;\nhttp://www.imdb.com/title/tt0103919&quot; rel=&quot;nofollow&quot; target=&quot;_NEW&quot;&gt;\nhttp://www.imdb.com/title/tt0103919&lt;/a&gt;\t\n\n------------------------ Dutch Friends ------------------------\n---------------------------------------------------------------\n- Bezoek ook eens mijn vrienden op: &lt;a href=&quot; http://www.Film-Test.nl&quot; rel=&quot;nofollow&quot; target=&quot;_NEW&quot;&gt; http://www.Film-Test.nl&lt;/a&gt; --\n----- voor mijn Nederlandse Sync. ondertitels ---- en meer ----\n------- http://www.Film-Test.nl ---- Over Films en meer -------\n---------------------------------------------------------------\n\nGeneral:\n\nComplete name                    : Candyman TrilogyCandyman 1992.avi\nFormat                           : AVI\nFormat/Info                      : Audio Video Interleave\nFormat profile                   : OpenDML\nFormat settings                  : rec\nFile size                        : 701 MiB\nDuration                         : 1h 34mn\nOverall bit rate                 : 1 033 Kbps\nWriting application              : AVI-Mux GUI 1.17.8.3, Feb 16 201019:42:50\n\nVideo:\n\nFormat                           : MPEG-4 Visual\nFormat profile                   : Advanced Simple@L5\nFormat settings, BVOP            : 2\nFormat settings, QPel            : No\nFormat settings, GMC             : No warppoints\nFormat settings, Matrix          : Default (H.263)\nCodec ID                         : XVID\nCodec ID/Hint                    : XviD\nDuration                         : 1h 34mn\nBit rate                         : 835 Kbps\nWidth                            : 512 pixels\nHeight                           : 272 pixels\nDisplay aspect ratio             : 1.882\nFrame rate                       : 25.000 fps\nColor space                      : YUV\nChroma subsampling               : 4:2:0\nBit depth                        : 8 bits\nScan type                        : Progressive\nCompression mode                 : Lossy\nBits/(Pixel*Frame)               : 0.240\nStream size                      : 567 MiB (81%)\nWriting library                  : XviD 1.2.1 (UTC 2008-12-04)\n\nAudio:\n\nFormat                           : AC-3\nFormat/Info                      : Audio Coding 3\nMode extension                   : CM (complete main)\nCodec ID                         : 2000\nDuration                         : 1h 34mn\nBit rate mode                    : Constant\nBit rate                         : 192 Kbps\nChannel(s)                       : 2 channels\nChannel positions                : Front: L R\nSampling rate                    : 48.0 KHz\nBit depth                        : 16 bits\nCompression mode                 : Lossy\nStream size                      : 130 MiB (19%)\nAlignment                        : Aligned on interleaves\nInterleave, duration             : 64 ms (1.60 video frames)\nInterleave, preload duration     : 192 ms\nTitle                            : VTS_01_1 T80 2_0ch 192Kbps DELAY 0ms","torrent":{"xt":"urn:btih:bdcd56094fdf5ba2960ffb5b40cfa3b7b59ce1d3","amp;dn":"Candyman+Trilogy+3DVDrip+English+Klam","amp;tr":["udp%3A%2F%2Ftracker.openbittorrent.com%3A80","udp%3A%2F%2Fopen.demonii.com%3A1337","udp%3A%2F%2Ftracker.coppersurfer.tk%3A6969","udp%3A%2F%2Fexodus.desync.com%3A6969"],"infoHash":"bdcd56094fdf5ba2960ffb5b40cfa3b7b59ce1d3","infoHashBuffer":{"type":"Buffer","data":[189,205,86,9,79,223,91,162,150,15,251,91,64,207,163,183,181,156,225,211]},"announce":[],"urlList":[]}}